<?xml version="1.0" encoding="UTF-8" standalone="no"?>
<svg xmlns="http://www.w3.org/2000/svg" width="512" height="512" viewBox="0 0 512 512">
  <rect width="512" height="512" rx="100" fill="#3B82F6"/>
  <path d="M256 120C182.3 120 120 182.3 120 256s62.3 136 136 136 136-62.3 136-136S329.7 120 256 120zm0 40c53 0 96 43 96 96s-43 96-96 96-96-43-96-96 43-96 96-96z" fill="white"/>
  <path d="M256 180c-42.4 0-76.8 34.4-76.8 76.8 0 42.4 34.4 76.8 76.8 76.8 42.4 0 76.8-34.4 76.8-76.8 0-42.4-34.4-76.8-76.8-76.8zm0 30.72c25.44 0 46.08 20.64 46.08 46.08 0 25.44-20.64 46.08-46.08 46.08-25.44 0-46.08-20.64-46.08-46.08 0-25.44 20.64-46.08 46.08-46.08z" fill="#BFDBFE"/>
  <path d="M368 160l-32 32M176 320l-32 32M368 320l-32-32M176 160l-32-32" stroke="white" stroke-width="16" stroke-linecap="round"/>
  <circle cx="256" cy="256" r="24" fill="white"/>
  <path d="M256 232v-40M256 320v-40M232 256h-40M320 256h-40" stroke="white" stroke-width="12" stroke-linecap="round"/>
  <path d="M200 200l-16-16M312 312l-16-16M312 200l-16 16M200 312l-16 16" stroke="#BFDBFE" stroke-width="8" stroke-linecap="round"/>
</svg>
